<svg xmlns="http://www.w3.org/2000/svg" xmlns:xlink="http://www.w3.org/1999/xlink" width="1080" zoomAndPan="magnify" viewBox="0 0 810 809.999993" height="1080" preserveAspectRatio="xMidYMid meet" version="1.0"><defs><g/><clipPath id="id1"><path d="M 316 276 L 636.160156 276 L 636.160156 637.320312 L 316 637.320312 Z M 316 276 " clip-rule="nonzero"/></clipPath><clipPath id="id2"><path d="M 173.710938 174.871094 L 607 174.871094 L 607 630 L 173.710938 630 Z M 173.710938 174.871094 " clip-rule="nonzero"/></clipPath></defs><g clip-path="url(#id1)"><path fill="rgb(22.349548%, 20.779419%, 21.179199%)" d="M 596.21875 276.171875 C 592.292969 283 587.652344 290.128906 582.175781 297.566406 C 581.964844 297.84375 581.753906 298.128906 581.546875 298.40625 L 583.910156 297.371094 L 579.308594 304.855469 C 596.617188 334.609375 606.539062 369.1875 606.539062 406.09375 C 606.539062 517.441406 516.28125 607.699219 404.933594 607.699219 C 375.277344 607.699219 347.109375 601.292969 321.746094 589.789062 C 319.753906 599.578125 318.019531 609.585938 316.628906 619.835938 C 343.839844 631.085938 373.65625 637.3125 404.933594 637.3125 C 532.636719 637.3125 636.152344 533.796875 636.152344 406.09375 C 636.152344 357.929688 621.417969 313.203125 596.21875 276.171875 " fill-opacity="1" fill-rule="nonzero"/></g><g clip-path="url(#id2)"><path fill="rgb(36.079407%, 88.238525%, 90.19928%)" d="M 594.558594 174.875 C 548.386719 194.121094 448.964844 260.171875 383.371094 341.652344 C 323.035156 416.59375 307.128906 521.535156 303.089844 580.082031 C 243.417969 545.070312 203.328125 480.277344 203.328125 406.09375 C 203.328125 294.75 293.589844 204.488281 404.933594 204.488281 C 437.109375 204.488281 467.519531 212.039062 494.507812 225.445312 C 503.691406 218.640625 512.730469 212.265625 521.484375 206.375 C 487.261719 186.363281 447.441406 174.875 404.933594 174.875 C 277.234375 174.875 173.714844 278.394531 173.714844 406.09375 C 173.714844 496.710938 225.871094 575.117188 301.78125 613.027344 C 301.769531 614.960938 301.769531 616.652344 301.773438 618.101562 C 304.683594 623.832031 306.625 629.632812 306.625 629.632812 C 330.625 413.957031 494.609375 291.667969 494.609375 291.667969 C 401.140625 385.960938 358.289062 481.140625 338.710938 545.695312 C 394.464844 477.8125 477.53125 475.933594 525.851562 374.300781 C 489.035156 405.039062 459.882812 409.355469 459.882812 409.355469 C 498.402344 393.210938 526.066406 366.675781 546.738281 338.828125 C 552.375 331.242188 557.398438 323.792969 561.882812 316.503906 C 544.058594 324.28125 528.6875 328.28125 528.6875 328.28125 C 548.546875 318.089844 564.882812 306.324219 575.148438 292.390625 C 631.726562 215.566406 594.558594 174.875 594.558594 174.875 " fill-opacity="1" fill-rule="nonzero"/></g><g fill="rgb(36.079407%, 88.238525%, 90.19928%)" fill-opacity="1"><g transform="translate(189.321256, 272.232782)"><g><path d="M 17.734375 -34.546875 C 18.316406 -34.796875 18.910156 -34.882812 19.515625 -34.8125 C 20.128906 -34.738281 20.671875 -34.535156 21.140625 -34.203125 C 21.734375 -33.765625 22.132812 -33.164062 22.34375 -32.40625 C 22.570312 -31.488281 22.3125 -30.515625 21.5625 -29.484375 C 20.988281 -28.691406 20.28125 -28.09375 19.4375 -27.6875 C 16.332031 -26.289062 12.691406 -27.117188 8.515625 -30.171875 C 7.328125 -31.035156 6.097656 -31.332031 4.828125 -31.0625 C 3.566406 -30.789062 2.40625 -29.929688 1.34375 -28.484375 L -5.421875 -19.1875 L 4.21875 -12.140625 C 5.113281 -11.492188 5.664062 -10.722656 5.875 -9.828125 C 6.09375 -8.941406 5.910156 -8.101562 5.328125 -7.3125 C 4.617188 -6.34375 3.710938 -5.710938 2.609375 -5.421875 C 1.515625 -5.128906 0.539062 -5.296875 -0.3125 -5.921875 L -29.03125 -26.875 C -29.894531 -27.5 -30.40625 -28.3125 -30.5625 -29.3125 C -30.71875 -30.320312 -30.484375 -31.253906 -29.859375 -32.109375 L -19.421875 -46.4375 C -18.160156 -48.15625 -16.507812 -49.441406 -14.46875 -50.296875 C -12.4375 -51.148438 -10.273438 -51.4375 -7.984375 -51.15625 C -5.691406 -50.875 -3.535156 -50 -1.515625 -48.53125 C 0.140625 -47.320312 1.425781 -45.695312 2.34375 -43.65625 C 3.269531 -41.613281 3.675781 -39.539062 3.5625 -37.4375 C 6.539062 -38.46875 9.328125 -38.1875 11.921875 -36.59375 C 12.523438 -36.3125 13.070312 -35.988281 13.5625 -35.625 C 14.6875 -35 15.519531 -34.585938 16.0625 -34.390625 C 16.613281 -34.203125 17.171875 -34.253906 17.734375 -34.546875 Z M -2.59375 -33.78125 C -2.164062 -34.382812 -2.03125 -35.171875 -2.1875 -36.140625 C -2.34375 -37.117188 -2.757812 -38.132812 -3.4375 -39.1875 C -4.113281 -40.238281 -5 -41.164062 -6.09375 -41.96875 C -7.019531 -42.632812 -8.003906 -43.066406 -9.046875 -43.265625 C -10.085938 -43.472656 -11.046875 -43.46875 -11.921875 -43.25 C -12.804688 -43.03125 -13.460938 -42.617188 -13.890625 -42.015625 L -21.828125 -31.140625 L -10.53125 -22.90625 Z M -2.59375 -33.78125 "/></g></g></g><g fill="rgb(36.079407%, 88.238525%, 90.19928%)" fill-opacity="1"><g transform="translate(233.96151, 218.252265)"><g><path d="M 18.328125 -23.515625 C 19.160156 -24.179688 20.082031 -24.453125 21.09375 -24.328125 C 22.101562 -24.210938 22.898438 -23.785156 23.484375 -23.046875 C 24.117188 -22.242188 24.359375 -21.363281 24.203125 -20.40625 C 24.046875 -19.445312 23.550781 -18.632812 22.71875 -17.96875 L 6.5625 -5.1875 C 5.726562 -4.53125 4.800781 -4.257812 3.78125 -4.375 C 2.769531 -4.488281 1.9375 -4.960938 1.28125 -5.796875 L -20.765625 -33.671875 C -21.429688 -34.503906 -21.703125 -35.425781 -21.578125 -36.4375 C -21.453125 -37.457031 -20.972656 -38.296875 -20.140625 -38.953125 L -3.984375 -51.734375 C -3.148438 -52.398438 -2.242188 -52.6875 -1.265625 -52.59375 C -0.285156 -52.507812 0.535156 -52.050781 1.203125 -51.21875 C 1.835938 -50.414062 2.078125 -49.546875 1.921875 -48.609375 C 1.765625 -47.679688 1.253906 -46.875 0.390625 -46.1875 L -12.6875 -35.84375 L -6.1875 -27.640625 L 4.71875 -36.265625 C 5.550781 -36.929688 6.457031 -37.222656 7.4375 -37.140625 C 8.414062 -37.054688 9.238281 -36.59375 9.90625 -35.75 C 10.539062 -34.945312 10.78125 -34.078125 10.625 -33.140625 C 10.46875 -32.210938 9.957031 -31.40625 9.09375 -30.71875 L -1.8125 -22.09375 L 5.25 -13.171875 Z M 18.328125 -23.515625 "/></g></g></g><g fill="rgb(36.079407%, 88.238525%, 90.19928%)" fill-opacity="1"><g transform="translate(285.814494, 181.902398)"><g><path d="M 23.078125 -17.953125 C 24.054688 -18.378906 25.007812 -18.425781 25.9375 -18.09375 C 26.875 -17.757812 27.5625 -17.101562 28 -16.125 C 28.40625 -15.1875 28.410156 -14.265625 28.015625 -13.359375 C 27.628906 -12.453125 26.945312 -11.785156 25.96875 -11.359375 L 7.65625 -3.34375 C 6.6875 -2.914062 5.726562 -2.882812 4.78125 -3.25 C 3.832031 -3.625 3.144531 -4.300781 2.71875 -5.28125 L -11.515625 -37.84375 C -11.941406 -38.820312 -11.960938 -39.785156 -11.578125 -40.734375 C -11.191406 -41.691406 -10.472656 -42.398438 -9.421875 -42.859375 C -8.472656 -43.273438 -7.515625 -43.300781 -6.546875 -42.9375 C -5.585938 -42.570312 -4.894531 -41.898438 -4.46875 -40.921875 L 8.375 -11.515625 Z M 23.078125 -17.953125 "/></g></g></g><g fill="rgb(36.079407%, 88.238525%, 90.19928%)" fill-opacity="1"><g transform="translate(344.082181, 159.742272)"><g><path d="M 40.96875 -27.234375 C 41.5 -23.203125 41.097656 -19.390625 39.765625 -15.796875 C 38.429688 -12.203125 36.316406 -9.21875 33.421875 -6.84375 C 30.535156 -4.46875 27.125 -3.019531 23.1875 -2.5 C 19.238281 -1.96875 15.5625 -2.460938 12.15625 -3.984375 C 8.75 -5.515625 5.929688 -7.835938 3.703125 -10.953125 C 1.484375 -14.066406 0.109375 -17.640625 -0.421875 -21.671875 C -0.960938 -25.679688 -0.578125 -29.484375 0.734375 -33.078125 C 2.054688 -36.671875 4.160156 -39.65625 7.046875 -42.03125 C 9.929688 -44.40625 13.347656 -45.859375 17.296875 -46.390625 C 21.234375 -46.910156 24.90625 -46.40625 28.3125 -44.875 C 31.726562 -43.351562 34.554688 -41.035156 36.796875 -37.921875 C 39.035156 -34.804688 40.425781 -31.242188 40.96875 -27.234375 Z M 33.03125 -26.171875 C 32.664062 -28.878906 31.785156 -31.265625 30.390625 -33.328125 C 28.992188 -35.398438 27.234375 -36.953125 25.109375 -37.984375 C 22.992188 -39.023438 20.71875 -39.382812 18.28125 -39.0625 C 15.800781 -38.726562 13.679688 -37.789062 11.921875 -36.25 C 10.160156 -34.71875 8.890625 -32.757812 8.109375 -30.375 C 7.335938 -27.988281 7.132812 -25.441406 7.5 -22.734375 C 7.863281 -20.003906 8.734375 -17.59375 10.109375 -15.5 C 11.484375 -13.414062 13.222656 -11.863281 15.328125 -10.84375 C 17.429688 -9.820312 19.722656 -9.476562 22.203125 -9.8125 C 24.640625 -10.132812 26.742188 -11.078125 28.515625 -12.640625 C 30.296875 -14.203125 31.582031 -16.164062 32.375 -18.53125 C 33.175781 -20.894531 33.394531 -23.441406 33.03125 -26.171875 Z M 33.03125 -26.171875 "/></g></g></g><g fill="rgb(36.079407%, 88.238525%, 90.19928%)" fill-opacity="1"><g transform="translate(418.018234, 154.341268)"><g><path d="M 38.65625 1.15625 C 38.78125 1.707031 38.8125 2.207031 38.75 2.65625 C 38.582031 3.707031 38.097656 4.515625 37.296875 5.078125 C 36.503906 5.640625 35.660156 5.851562 34.765625 5.71875 C 34.035156 5.601562 33.410156 5.273438 32.890625 4.734375 C 32.367188 4.191406 32.015625 3.515625 31.828125 2.703125 L 29.796875 -5.15625 L 11.6875 -7.96875 L 7.390625 -1.03125 C 6.984375 -0.300781 6.453125 0.226562 5.796875 0.5625 C 5.140625 0.894531 4.46875 1.007812 3.78125 0.90625 C 2.726562 0.738281 1.972656 0.328125 1.515625 -0.328125 C 1.054688 -0.984375 0.898438 -1.796875 1.046875 -2.765625 C 1.109375 -3.117188 1.226562 -3.492188 1.40625 -3.890625 L 22.1875 -37.890625 C 22.632812 -38.640625 23.21875 -39.1875 23.9375 -39.53125 C 24.65625 -39.882812 25.410156 -39.957031 26.203125 -39.75 C 26.929688 -39.632812 27.578125 -39.3125 28.140625 -38.78125 C 28.703125 -38.257812 29.066406 -37.597656 29.234375 -36.796875 Z M 15.75 -14.484375 L 27.90625 -12.59375 L 23.96875 -27.765625 Z M 15.75 -14.484375 "/></g></g></g><g fill="rgb(36.079407%, 88.238525%, 90.19928%)" fill-opacity="1"><g transform="translate(483.525934, 168.136187)"><g><path d="M 39.09375 -29.265625 C 42.582031 -27.640625 45.175781 -25.375 46.875 -22.46875 C 48.582031 -19.570312 49.40625 -16.335938 49.34375 -12.765625 C 49.289062 -9.203125 48.414062 -5.601562 46.71875 -1.96875 C 45.019531 1.675781 42.820312 4.664062 40.125 7 C 37.425781 9.34375 34.421875 10.789062 31.109375 11.34375 C 27.796875 11.90625 24.394531 11.375 20.90625 9.75 L 7.578125 3.53125 C 6.609375 3.082031 5.945312 2.378906 5.59375 1.421875 C 5.25 0.472656 5.300781 -0.484375 5.75 -1.453125 L 20.78125 -33.65625 C 21.226562 -34.625 21.925781 -35.28125 22.875 -35.625 C 23.832031 -35.976562 24.796875 -35.929688 25.765625 -35.484375 Z M 23.328125 3.0625 C 26.671875 4.625 29.753906 4.5625 32.578125 2.875 C 35.398438 1.1875 37.695312 -1.550781 39.46875 -5.34375 C 41.238281 -9.125 41.851562 -12.644531 41.3125 -15.90625 C 40.78125 -19.175781 38.859375 -21.582031 35.546875 -23.125 L 26.34375 -27.40625 L 14.125 -1.21875 Z M 23.328125 3.0625 "/></g></g></g><g fill="rgb(65.098572%, 65.098572%, 65.098572%)" fill-opacity="1"><g transform="translate(308.582193, 489.190668)"><g><path d="M 1.546875 -9.421875 C 1.398438 -8.222656 1.171875 -6.921875 0.859375 -5.515625 C 0.546875 -4.117188 0.207031 -2.894531 -0.15625 -1.84375 L -4.9375 -2.453125 C -4.34375 -5.347656 -3.972656 -7.351562 -3.828125 -8.46875 C -3.703125 -9.457031 -3.660156 -10.210938 -3.703125 -10.734375 C -3.753906 -11.265625 -3.910156 -11.679688 -4.171875 -11.984375 C -4.367188 -12.242188 -4.664062 -12.4375 -5.0625 -12.5625 C -5.46875 -12.6875 -6.0625 -12.796875 -6.84375 -12.890625 C -7.894531 -13.023438 -8.648438 -13.0625 -9.109375 -13 C -9.566406 -12.9375 -9.925781 -12.738281 -10.1875 -12.40625 C -10.445312 -12.082031 -10.722656 -11.492188 -11.015625 -10.640625 L -12.25 -6.703125 C -12.6875 -5.304688 -13.59375 -4.421875 -14.96875 -4.046875 C -16.351562 -3.671875 -18.285156 -3.640625 -20.765625 -3.953125 C -23.191406 -4.265625 -25.003906 -4.851562 -26.203125 -5.71875 C -27.398438 -6.582031 -28.144531 -7.65625 -28.4375 -8.9375 C -28.738281 -10.226562 -28.769531 -11.816406 -28.53125 -13.703125 C -28.363281 -15.015625 -28.117188 -16.265625 -27.796875 -17.453125 C -27.472656 -18.648438 -27.175781 -19.625 -26.90625 -20.375 L -22.109375 -19.75 C -22.566406 -18.257812 -22.914062 -16.550781 -23.15625 -14.625 C -23.289062 -13.601562 -23.347656 -12.804688 -23.328125 -12.234375 C -23.304688 -11.660156 -23.203125 -11.234375 -23.015625 -10.953125 C -22.828125 -10.609375 -22.523438 -10.363281 -22.109375 -10.21875 C -21.691406 -10.070312 -21.070312 -9.945312 -20.25 -9.84375 C -19.363281 -9.726562 -18.710938 -9.695312 -18.296875 -9.75 C -17.878906 -9.800781 -17.570312 -9.941406 -17.375 -10.171875 C -17.175781 -10.410156 -16.976562 -10.835938 -16.78125 -11.453125 L -15.59375 -15.125 C -15.332031 -16.101562 -14.921875 -16.914062 -14.359375 -17.5625 C -13.796875 -18.207031 -12.953125 -18.660156 -11.828125 -18.921875 C -10.628906 -19.179688 -8.984375 -19.175781 -6.890625 -18.90625 C -4.179688 -18.5625 -2.179688 -17.972656 -0.890625 -17.140625 C 0.390625 -16.304688 1.175781 -15.28125 1.46875 -14.0625 C 1.769531 -12.851562 1.796875 -11.304688 1.546875 -9.421875 Z M 1.546875 -9.421875 "/></g></g></g><g fill="rgb(65.098572%, 65.098572%, 65.098572%)" fill-opacity="1"><g transform="translate(317.654183, 439.933465)"><g><path d="M 4.4375 -13.8125 L -8.78125 -13.171875 L -9.28125 -11.609375 L 2.515625 -7.8125 L 0.6875 -2.140625 L -27.59375 -11.234375 L -25.765625 -16.90625 L -14.390625 -13.234375 L -13.890625 -14.796875 L -23.796875 -23.03125 L -21.921875 -28.859375 L -10.28125 -18.625 L 6.390625 -19.890625 Z M 4.4375 -13.8125 "/></g></g></g><g fill="rgb(65.098572%, 65.098572%, 65.098572%)" fill-opacity="1"><g transform="translate(336.586438, 391.085957)"><g><path d="M 1.046875 -2.03125 L -25.296875 -15.75 L -22.5625 -21 L 3.78125 -7.28125 Z M 1.046875 -2.03125 "/></g></g></g><g fill="rgb(65.098572%, 65.098572%, 65.098572%)" fill-opacity="1"><g transform="translate(357.872302, 355.117951)"><g><path d="M 1.34375 -1.796875 L -22.46875 -19.546875 L -18.90625 -24.328125 L 0.578125 -9.796875 L 5.0625 -15.828125 L 9.390625 -12.609375 Z M 1.34375 -1.796875 "/></g></g></g><g fill="rgb(65.098572%, 65.098572%, 65.098572%)" fill-opacity="1"><g transform="translate(388.348215, 318.673411)"><g><path d="M 1.625 -1.546875 L -18.828125 -23.078125 L -14.5 -27.1875 L 2.234375 -9.5625 L 7.671875 -14.734375 L 11.390625 -10.828125 Z M 1.625 -1.546875 "/></g></g></g><g fill="rgb(65.098572%, 65.098572%, 65.098572%)" fill-opacity="1"><g transform="translate(424.495611, 287.940925)"><g><path d="M 8.15625 -4.984375 C 7.144531 -4.316406 6.003906 -3.644531 4.734375 -2.96875 C 3.472656 -2.289062 2.328125 -1.742188 1.296875 -1.328125 L -1.359375 -5.359375 C 1.210938 -6.785156 2.96875 -7.804688 3.90625 -8.421875 C 4.738281 -8.972656 5.34375 -9.441406 5.71875 -9.828125 C 6.09375 -10.210938 6.300781 -10.597656 6.34375 -10.984375 C 6.414062 -11.296875 6.363281 -11.644531 6.1875 -12.03125 C 6.019531 -12.425781 5.722656 -12.953125 5.296875 -13.609375 C 4.703125 -14.492188 4.234375 -15.085938 3.890625 -15.390625 C 3.546875 -15.691406 3.164062 -15.832031 2.75 -15.8125 C 2.332031 -15.800781 1.707031 -15.625 0.875 -15.28125 L -2.921875 -13.65625 C -4.265625 -13.082031 -5.53125 -13.195312 -6.71875 -14 C -7.90625 -14.800781 -9.1875 -16.242188 -10.5625 -18.328125 C -11.914062 -20.367188 -12.65625 -22.125 -12.78125 -23.59375 C -12.90625 -25.0625 -12.578125 -26.328125 -11.796875 -27.390625 C -11.023438 -28.460938 -9.847656 -29.519531 -8.265625 -30.5625 C -7.160156 -31.289062 -6.046875 -31.921875 -4.921875 -32.453125 C -3.804688 -32.984375 -2.875 -33.390625 -2.125 -33.671875 L 0.53125 -29.65625 C -0.90625 -29.007812 -2.429688 -28.148438 -4.046875 -27.078125 C -4.898438 -26.515625 -5.535156 -26.039062 -5.953125 -25.65625 C -6.378906 -25.269531 -6.640625 -24.910156 -6.734375 -24.578125 C -6.867188 -24.222656 -6.851562 -23.835938 -6.6875 -23.421875 C -6.519531 -23.003906 -6.207031 -22.453125 -5.75 -21.765625 C -5.25 -21.015625 -4.847656 -20.5 -4.546875 -20.21875 C -4.242188 -19.945312 -3.9375 -19.804688 -3.625 -19.796875 C -3.320312 -19.796875 -2.875 -19.925781 -2.28125 -20.1875 L 1.28125 -21.6875 C 2.195312 -22.144531 3.082031 -22.367188 3.9375 -22.359375 C 4.789062 -22.347656 5.679688 -21.992188 6.609375 -21.296875 C 7.585938 -20.554688 8.65625 -19.3125 9.8125 -17.5625 C 11.320312 -15.28125 12.179688 -13.378906 12.390625 -11.859375 C 12.597656 -10.347656 12.335938 -9.082031 11.609375 -8.0625 C 10.878906 -7.050781 9.726562 -6.023438 8.15625 -4.984375 Z M 8.15625 -4.984375 "/></g></g></g><g fill="rgb(100%, 100%, 100%)" fill-opacity="1"><g transform="translate(193.533417, 596.785472)"><g><path d="M 35.0625 -6.65625 L 23.234375 4.90625 C 20.441406 7.644531 18.296875 9.515625 16.796875 10.515625 C 15.304688 11.523438 13.851562 11.863281 12.4375 11.53125 C 11.019531 11.195312 9.335938 10.035156 7.390625 8.046875 C 5.429688 6.046875 4.300781 4.335938 4 2.921875 C 3.707031 1.503906 4.078125 0.0625 5.109375 -1.40625 C 6.148438 -2.882812 8.066406 -4.992188 10.859375 -7.734375 L 22.6875 -19.296875 L 26.8125 -15.078125 L 13.578125 -2.125 C 12.066406 -0.65625 11.066406 0.390625 10.578125 1.015625 C 10.085938 1.648438 9.882812 2.195312 9.96875 2.65625 C 10.050781 3.113281 10.4375 3.695312 11.125 4.40625 C 11.8125 5.101562 12.378906 5.492188 12.828125 5.578125 C 13.273438 5.660156 13.804688 5.46875 14.421875 5 C 15.046875 4.53125 16.125 3.546875 17.65625 2.046875 L 30.890625 -10.90625 Z M 35.0625 -6.65625 "/></g></g></g><g fill="rgb(100%, 100%, 100%)" fill-opacity="1"><g transform="translate(218.109597, 620.771075)"><g><path d="M 20.375 -21.734375 L 28.015625 -15.59375 C 29.648438 -14.269531 30.648438 -12.976562 31.015625 -11.71875 C 31.378906 -10.457031 31.257812 -9.15625 30.65625 -7.8125 C 30.0625 -6.46875 29.023438 -4.875 27.546875 -3.03125 C 26.117188 -1.257812 24.820312 0.0664062 23.65625 0.953125 C 22.5 1.847656 21.238281 2.269531 19.875 2.21875 C 18.507812 2.164062 16.984375 1.460938 15.296875 0.109375 L 12.34375 -2.265625 L 6.390625 5.140625 L 1.75 1.40625 Z M 17.4375 -4.859375 C 18.195312 -4.253906 18.800781 -3.910156 19.25 -3.828125 C 19.707031 -3.753906 20.191406 -3.929688 20.703125 -4.359375 C 21.210938 -4.796875 21.945312 -5.601562 22.90625 -6.78125 C 23.863281 -7.976562 24.488281 -8.859375 24.78125 -9.421875 C 25.070312 -9.992188 25.132812 -10.488281 24.96875 -10.90625 C 24.8125 -11.320312 24.347656 -11.835938 23.578125 -12.453125 L 21.734375 -13.9375 L 15.625 -6.328125 Z M 17.4375 -4.859375 "/></g></g></g><g fill="rgb(100%, 100%, 100%)" fill-opacity="1"><g transform="translate(244.225886, 640.832262)"><g><path d="M 7.875 5.40625 C 6.851562 4.757812 5.773438 3.992188 4.640625 3.109375 C 3.515625 2.234375 2.546875 1.410156 1.734375 0.640625 L 4.328125 -3.4375 C 6.679688 -1.675781 8.335938 -0.5 9.296875 0.09375 C 10.140625 0.632812 10.8125 0.992188 11.3125 1.171875 C 11.8125 1.359375 12.25 1.398438 12.625 1.296875 C 12.9375 1.210938 13.234375 1.015625 13.515625 0.703125 C 13.804688 0.398438 14.160156 -0.0820312 14.578125 -0.75 C 15.148438 -1.644531 15.503906 -2.3125 15.640625 -2.75 C 15.773438 -3.1875 15.75 -3.59375 15.5625 -3.96875 C 15.375 -4.34375 14.953125 -4.84375 14.296875 -5.46875 L 11.265625 -8.265625 C 10.179688 -9.242188 9.757812 -10.441406 10 -11.859375 C 10.25 -13.273438 11.039062 -15.039062 12.375 -17.15625 C 13.6875 -19.21875 14.984375 -20.609375 16.265625 -21.328125 C 17.554688 -22.046875 18.847656 -22.265625 20.140625 -21.984375 C 21.429688 -21.710938 22.878906 -21.070312 24.484375 -20.0625 C 25.609375 -19.351562 26.640625 -18.597656 27.578125 -17.796875 C 28.515625 -16.992188 29.265625 -16.3125 29.828125 -15.75 L 27.25 -11.671875 C 26.082031 -12.722656 24.675781 -13.765625 23.03125 -14.796875 C 22.164062 -15.347656 21.46875 -15.738281 20.9375 -15.96875 C 20.414062 -16.195312 19.988281 -16.28125 19.65625 -16.21875 C 19.269531 -16.1875 18.921875 -16.015625 18.609375 -15.703125 C 18.304688 -15.390625 17.9375 -14.882812 17.5 -14.1875 C 17.019531 -13.425781 16.710938 -12.847656 16.578125 -12.453125 C 16.453125 -12.054688 16.453125 -11.71875 16.578125 -11.4375 C 16.703125 -11.15625 17 -10.796875 17.46875 -10.359375 L 20.3125 -7.734375 C 21.09375 -7.078125 21.65625 -6.359375 22 -5.578125 C 22.34375 -4.796875 22.390625 -3.835938 22.140625 -2.703125 C 21.867188 -1.503906 21.171875 -0.015625 20.046875 1.765625 C 18.585938 4.066406 17.207031 5.625 15.90625 6.4375 C 14.601562 7.25 13.335938 7.53125 12.109375 7.28125 C 10.890625 7.039062 9.476562 6.414062 7.875 5.40625 Z M 7.875 5.40625 "/></g></g></g><g fill="rgb(100%, 100%, 100%)" fill-opacity="1"><g transform="translate(271.253374, 657.153745)"><g><path d="M 13.0625 6.296875 L 14.25 -6.875 L 12.765625 -7.59375 L 7.390625 3.5625 L 2.03125 0.984375 L 14.921875 -25.765625 L 20.28125 -23.1875 L 15.09375 -12.421875 L 16.578125 -11.703125 L 26.078125 -20.390625 L 31.59375 -17.734375 L 19.875 -7.625 L 18.8125 9.0625 Z M 13.0625 6.296875 "/></g></g></g><g fill="rgb(100%, 100%, 100%)" fill-opacity="1"><g transform="translate(301.747988, 670.889212)"><g><path d="M 2.140625 0.78125 L 12.328125 -27.125 L 17.890625 -25.09375 L 7.703125 2.8125 Z M 2.140625 0.78125 "/></g></g></g><g fill="rgb(100%, 100%, 100%)" fill-opacity="1"><g transform="translate(323.092585, 678.246309)"><g><path d="M 2.171875 0.578125 L 9.8125 -28.125 L 15.5625 -26.59375 L 9.3125 -3.09375 L 16.578125 -1.15625 L 15.1875 4.046875 Z M 2.171875 0.578125 "/></g></g></g><g fill="rgb(100%, 100%, 100%)" fill-opacity="1"><g transform="translate(350.882186, 685.01489)"><g><path d="M 2.21875 0.359375 L 6.9375 -28.96875 L 12.8125 -28.03125 L 8.953125 -4.03125 L 16.375 -2.828125 L 15.515625 2.5 Z M 2.21875 0.359375 "/></g></g></g><g fill="rgb(100%, 100%, 100%)" fill-opacity="1"><g transform="translate(398.794074, 690.058302)"><g><path d="M 7.03125 -0.109375 L 6.859375 -10.390625 L -0.484375 -29.703125 L 5.609375 -29.796875 L 9.6875 -17.03125 L 10.078125 -17.046875 L 13.640625 -29.9375 L 19.5 -30.03125 L 12.78125 -10.5 L 12.953125 -0.21875 Z M 7.03125 -0.109375 "/></g></g></g><g fill="rgb(100%, 100%, 100%)" fill-opacity="1"><g transform="translate(431.247931, 688.845481)"><g><path d="M 10.875 -1.109375 C 7.90625 -0.710938 5.734375 -0.863281 4.359375 -1.5625 C 2.984375 -2.269531 2.007812 -3.5625 1.4375 -5.4375 C 0.875 -7.3125 0.289062 -10.472656 -0.3125 -14.921875 C -0.914062 -19.410156 -1.1875 -22.632812 -1.125 -24.59375 C -1.070312 -26.550781 -0.476562 -28.046875 0.65625 -29.078125 C 1.789062 -30.117188 3.84375 -30.835938 6.8125 -31.234375 C 9.769531 -31.640625 11.9375 -31.488281 13.3125 -30.78125 C 14.695312 -30.082031 15.671875 -28.796875 16.234375 -26.921875 C 16.796875 -25.054688 17.378906 -21.878906 17.984375 -17.390625 C 18.585938 -12.941406 18.863281 -9.734375 18.8125 -7.765625 C 18.757812 -5.804688 18.160156 -4.304688 17.015625 -3.265625 C 15.878906 -2.234375 13.832031 -1.515625 10.875 -1.109375 Z M 10.171875 -6.28125 C 11.316406 -6.4375 12.066406 -6.703125 12.421875 -7.078125 C 12.773438 -7.453125 12.925781 -8.257812 12.875 -9.5 C 12.820312 -10.738281 12.5625 -13.101562 12.09375 -16.59375 C 11.625 -20.101562 11.25 -22.46875 10.96875 -23.6875 C 10.6875 -24.90625 10.328125 -25.644531 9.890625 -25.90625 C 9.453125 -26.164062 8.660156 -26.21875 7.515625 -26.0625 C 6.378906 -25.914062 5.628906 -25.65625 5.265625 -25.28125 C 4.898438 -24.90625 4.742188 -24.09375 4.796875 -22.84375 C 4.859375 -21.601562 5.125 -19.226562 5.59375 -15.71875 C 6.0625 -12.226562 6.429688 -9.875 6.703125 -8.65625 C 6.984375 -7.445312 7.347656 -6.710938 7.796875 -6.453125 C 8.242188 -6.191406 9.035156 -6.132812 10.171875 -6.28125 Z M 10.171875 -6.28125 "/></g></g></g><g fill="rgb(100%, 100%, 100%)" fill-opacity="1"><g transform="translate(465.210879, 683.50053)"><g><path d="M 11.625 -33.71875 L 15.796875 -17.734375 C 16.785156 -13.941406 17.34375 -11.144531 17.46875 -9.34375 C 17.601562 -7.550781 17.175781 -6.125 16.1875 -5.0625 C 15.207031 -4.007812 13.363281 -3.128906 10.65625 -2.421875 C 7.957031 -1.722656 5.914062 -1.59375 4.53125 -2.03125 C 3.15625 -2.46875 2.082031 -3.503906 1.3125 -5.140625 C 0.550781 -6.773438 -0.320312 -9.488281 -1.3125 -13.28125 L -5.484375 -29.265625 L 0.21875 -30.75 L 4.890625 -12.84375 C 5.421875 -10.800781 5.835938 -9.410156 6.140625 -8.671875 C 6.441406 -7.929688 6.8125 -7.484375 7.25 -7.328125 C 7.6875 -7.179688 8.378906 -7.226562 9.328125 -7.46875 C 10.273438 -7.71875 10.898438 -8.015625 11.203125 -8.359375 C 11.503906 -8.703125 11.601562 -9.257812 11.5 -10.03125 C 11.394531 -10.8125 11.070312 -12.238281 10.53125 -14.3125 L 5.859375 -32.21875 Z M 11.625 -33.71875 "/></g></g></g><g fill="rgb(100%, 100%, 100%)" fill-opacity="1"><g transform="translate(498.263994, 674.092987)"><g><path d="M 13.296875 -5.234375 L 6.796875 -13.8125 L 3.828125 -12.640625 L 7.625 -3 L 2.09375 -0.828125 L -8.796875 -28.46875 L 0.515625 -32.140625 C 2.492188 -32.910156 4.117188 -33.15625 5.390625 -32.875 C 6.660156 -32.601562 7.71875 -31.90625 8.5625 -30.78125 C 9.40625 -29.664062 10.242188 -28.054688 11.078125 -25.953125 C 11.867188 -23.941406 12.34375 -22.207031 12.5 -20.75 C 12.65625 -19.289062 12.316406 -18.015625 11.484375 -16.921875 L 19.046875 -7.5 Z M 4.421875 -18.390625 C 5.296875 -18.742188 5.878906 -19.09375 6.171875 -19.4375 C 6.460938 -19.78125 6.5625 -20.25 6.46875 -20.84375 C 6.375 -21.445312 6.066406 -22.40625 5.546875 -23.71875 C 5.046875 -25.007812 4.628906 -25.894531 4.296875 -26.375 C 3.960938 -26.863281 3.566406 -27.132812 3.109375 -27.1875 C 2.660156 -27.25 2 -27.101562 1.125 -26.75 L -1.34375 -25.78125 L 1.953125 -17.421875 Z M 4.421875 -18.390625 "/></g></g></g><g fill="rgb(100%, 100%, 100%)" fill-opacity="1"><g transform="translate(529.393245, 660.993672)"><g><path d="M 8.578125 -4.203125 C 7.515625 -3.628906 6.320312 -3.0625 5 -2.5 C 3.6875 -1.945312 2.488281 -1.515625 1.40625 -1.203125 L -0.859375 -5.46875 C 1.835938 -6.632812 3.679688 -7.484375 4.671875 -8.015625 C 5.554688 -8.484375 6.203125 -8.890625 6.609375 -9.234375 C 7.015625 -9.585938 7.265625 -9.953125 7.359375 -10.328125 C 7.453125 -10.648438 7.429688 -11.007812 7.296875 -11.40625 C 7.171875 -11.800781 6.921875 -12.347656 6.546875 -13.046875 C 6.046875 -13.984375 5.640625 -14.617188 5.328125 -14.953125 C 5.015625 -15.285156 4.644531 -15.460938 4.21875 -15.484375 C 3.800781 -15.515625 3.160156 -15.398438 2.296875 -15.140625 L -1.625 -13.859375 C -3.007812 -13.421875 -4.253906 -13.65625 -5.359375 -14.5625 C -6.472656 -15.46875 -7.617188 -17.023438 -8.796875 -19.234375 C -9.953125 -21.390625 -10.523438 -23.207031 -10.515625 -24.6875 C -10.503906 -26.164062 -10.054688 -27.398438 -9.171875 -28.390625 C -8.296875 -29.378906 -7.019531 -30.316406 -5.34375 -31.203125 C -4.175781 -31.828125 -3.015625 -32.347656 -1.859375 -32.765625 C -0.703125 -33.191406 0.257812 -33.507812 1.03125 -33.71875 L 3.3125 -29.46875 C 1.820312 -28.96875 0.222656 -28.257812 -1.484375 -27.34375 C -2.390625 -26.863281 -3.070312 -26.453125 -3.53125 -26.109375 C -3.988281 -25.765625 -4.28125 -25.425781 -4.40625 -25.09375 C -4.5625 -24.75 -4.578125 -24.363281 -4.453125 -23.9375 C -4.328125 -23.519531 -4.070312 -22.941406 -3.6875 -22.203125 C -3.257812 -21.410156 -2.90625 -20.859375 -2.625 -20.546875 C -2.351562 -20.242188 -2.0625 -20.078125 -1.75 -20.046875 C -1.4375 -20.023438 -0.976562 -20.113281 -0.375 -20.3125 L 3.3125 -21.484375 C 4.257812 -21.828125 5.15625 -21.953125 6 -21.859375 C 6.851562 -21.773438 7.710938 -21.351562 8.578125 -20.59375 C 9.484375 -19.769531 10.429688 -18.425781 11.421875 -16.5625 C 12.703125 -14.15625 13.375 -12.1875 13.4375 -10.65625 C 13.507812 -9.125 13.132812 -7.882812 12.3125 -6.9375 C 11.5 -6 10.253906 -5.085938 8.578125 -4.203125 Z M 8.578125 -4.203125 "/></g></g></g><g fill="rgb(100%, 100%, 100%)" fill-opacity="1"><g transform="translate(556.834887, 645.55219)"><g><path d="M 1.859375 -1.265625 L -14.890625 -25.796875 L -2.984375 -33.9375 L -0.046875 -29.625 L -7.046875 -24.84375 L -3.171875 -19.171875 L 2.859375 -23.296875 L 5.8125 -18.984375 L -0.21875 -14.859375 L 3.828125 -8.9375 L 10.828125 -13.71875 L 13.765625 -9.40625 Z M 1.859375 -1.265625 "/></g></g></g><g fill="rgb(100%, 100%, 100%)" fill-opacity="1"><g transform="translate(581.595961, 627.812653)"><g><path d="M 1.71875 -1.453125 L -17.5 -24.109375 L -12.96875 -27.96875 L 2.765625 -9.421875 L 8.5 -14.28125 L 11.984375 -10.171875 Z M 1.71875 -1.453125 "/></g></g></g><g fill="rgb(100%, 100%, 100%)" fill-opacity="1"><g transform="translate(603.021728, 608.841831)"><g><path d="M 1.5625 -1.625 L -19.859375 -22.203125 L -10.328125 -32.125 L -6.5625 -28.515625 L -11.96875 -22.890625 L -6.515625 -17.640625 L -1.765625 -22.578125 L 2 -18.96875 L -2.75 -14.03125 L 5.6875 -5.921875 Z M 1.5625 -1.625 "/></g></g></g><g fill="rgb(36.079407%, 88.238525%, 90.19928%)" fill-opacity="1"><g transform="translate(189.321256, 272.232782)"><g><path d="M 17.734375 -34.546875 C 18.316406 -34.796875 18.910156 -34.882812 19.515625 -34.8125 C 20.128906 -34.738281 20.671875 -34.535156 21.140625 -34.203125 C 21.734375 -33.765625 22.132812 -33.164062 22.34375 -32.40625 C 22.570312 -31.488281 22.3125 -30.515625 21.5625 -29.484375 C 20.988281 -28.691406 20.28125 -28.09375 19.4375 -27.6875 C 16.332031 -26.289062 12.691406 -27.117188 8.515625 -30.171875 C 7.328125 -31.035156 6.097656 -31.332031 4.828125 -31.0625 C 3.566406 -30.789062 2.40625 -29.929688 1.34375 -28.484375 L -5.421875 -19.1875 L 4.21875 -12.140625 C 5.113281 -11.492188 5.664062 -10.722656 5.875 -9.828125 C 6.09375 -8.941406 5.910156 -8.101562 5.328125 -7.3125 C 4.617188 -6.34375 3.710938 -5.710938 2.609375 -5.421875 C 1.515625 -5.128906 0.539062 -5.296875 -0.3125 -5.921875 L -29.03125 -26.875 C -29.894531 -27.5 -30.40625 -28.3125 -30.5625 -29.3125 C -30.71875 -30.320312 -30.484375 -31.253906 -29.859375 -32.109375 L -19.421875 -46.4375 C -18.160156 -48.15625 -16.507812 -49.441406 -14.46875 -50.296875 C -12.4375 -51.148438 -10.273438 -51.4375 -7.984375 -51.15625 C -5.691406 -50.875 -3.535156 -50 -1.515625 -48.53125 C 0.140625 -47.320312 1.425781 -45.695312 2.34375 -43.65625 C 3.269531 -41.613281 3.675781 -39.539062 3.5625 -37.4375 C 6.539062 -38.46875 9.328125 -38.1875 11.921875 -36.59375 C 12.523438 -36.3125 13.070312 -35.988281 13.5625 -35.625 C 14.6875 -35 15.519531 -34.585938 16.0625 -34.390625 C 16.613281 -34.203125 17.171875 -34.253906 17.734375 -34.546875 Z M -2.59375 -33.78125 C -2.164062 -34.382812 -2.03125 -35.171875 -2.1875 -36.140625 C -2.34375 -37.117188 -2.757812 -38.132812 -3.4375 -39.1875 C -4.113281 -40.238281 -5 -41.164062 -6.09375 -41.96875 C -7.019531 -42.632812 -8.003906 -43.066406 -9.046875 -43.265625 C -10.085938 -43.472656 -11.046875 -43.46875 -11.921875 -43.25 C -12.804688 -43.03125 -13.460938 -42.617188 -13.890625 -42.015625 L -21.828125 -31.140625 L -10.53125 -22.90625 Z M -2.59375 -33.78125 "/></g></g></g><g fill="rgb(36.079407%, 88.238525%, 90.19928%)" fill-opacity="1"><g transform="translate(233.96151, 218.252265)"><g><path d="M 18.328125 -23.515625 C 19.160156 -24.179688 20.082031 -24.453125 21.09375 -24.328125 C 22.101562 -24.210938 22.898438 -23.785156 23.484375 -23.046875 C 24.117188 -22.242188 24.359375 -21.363281 24.203125 -20.40625 C 24.046875 -19.445312 23.550781 -18.632812 22.71875 -17.96875 L 6.5625 -5.1875 C 5.726562 -4.53125 4.800781 -4.257812 3.78125 -4.375 C 2.769531 -4.488281 1.9375 -4.960938 1.28125 -5.796875 L -20.765625 -33.671875 C -21.429688 -34.503906 -21.703125 -35.425781 -21.578125 -36.4375 C -21.453125 -37.457031 -20.972656 -38.296875 -20.140625 -38.953125 L -3.984375 -51.734375 C -3.148438 -52.398438 -2.242188 -52.6875 -1.265625 -52.59375 C -0.285156 -52.507812 0.535156 -52.050781 1.203125 -51.21875 C 1.835938 -50.414062 2.078125 -49.546875 1.921875 -48.609375 C 1.765625 -47.679688 1.253906 -46.875 0.390625 -46.1875 L -12.6875 -35.84375 L -6.1875 -27.640625 L 4.71875 -36.265625 C 5.550781 -36.929688 6.457031 -37.222656 7.4375 -37.140625 C 8.414062 -37.054688 9.238281 -36.59375 9.90625 -35.75 C 10.539062 -34.945312 10.78125 -34.078125 10.625 -33.140625 C 10.46875 -32.210938 9.957031 -31.40625 9.09375 -30.71875 L -1.8125 -22.09375 L 5.25 -13.171875 Z M 18.328125 -23.515625 "/></g></g></g><g fill="rgb(36.079407%, 88.238525%, 90.19928%)" fill-opacity="1"><g transform="translate(285.814494, 181.902398)"><g><path d="M 23.078125 -17.953125 C 24.054688 -18.378906 25.007812 -18.425781 25.9375 -18.09375 C 26.875 -17.757812 27.5625 -17.101562 28 -16.125 C 28.40625 -15.1875 28.410156 -14.265625 28.015625 -13.359375 C 27.628906 -12.453125 26.945312 -11.785156 25.96875 -11.359375 L 7.65625 -3.34375 C 6.6875 -2.914062 5.726562 -2.882812 4.78125 -3.25 C 3.832031 -3.625 3.144531 -4.300781 2.71875 -5.28125 L -11.515625 -37.84375 C -11.941406 -38.820312 -11.960938 -39.785156 -11.578125 -40.734375 C -11.191406 -41.691406 -10.472656 -42.398438 -9.421875 -42.859375 C -8.472656 -43.273438 -7.515625 -43.300781 -6.546875 -42.9375 C -5.585938 -42.570312 -4.894531 -41.898438 -4.46875 -40.921875 L 8.375 -11.515625 Z M 23.078125 -17.953125 "/></g></g></g><g fill="rgb(36.079407%, 88.238525%, 90.19928%)" fill-opacity="1"><g transform="translate(344.082181, 159.742272)"><g><path d="M 40.96875 -27.234375 C 41.5 -23.203125 41.097656 -19.390625 39.765625 -15.796875 C 38.429688 -12.203125 36.316406 -9.21875 33.421875 -6.84375 C 30.535156 -4.46875 27.125 -3.019531 23.1875 -2.5 C 19.238281 -1.96875 15.5625 -2.460938 12.15625 -3.984375 C 8.75 -5.515625 5.929688 -7.835938 3.703125 -10.953125 C 1.484375 -14.066406 0.109375 -17.640625 -0.421875 -21.671875 C -0.960938 -25.679688 -0.578125 -29.484375 0.734375 -33.078125 C 2.054688 -36.671875 4.160156 -39.65625 7.046875 -42.03125 C 9.929688 -44.40625 13.347656 -45.859375 17.296875 -46.390625 C 21.234375 -46.910156 24.90625 -46.40625 28.3125 -44.875 C 31.726562 -43.351562 34.554688 -41.035156 36.796875 -37.921875 C 39.035156 -34.804688 40.425781 -31.242188 40.96875 -27.234375 Z M 33.03125 -26.171875 C 32.664062 -28.878906 31.785156 -31.265625 30.390625 -33.328125 C 28.992188 -35.398438 27.234375 -36.953125 25.109375 -37.984375 C 22.992188 -39.023438 20.71875 -39.382812 18.28125 -39.0625 C 15.800781 -38.726562 13.679688 -37.789062 11.921875 -36.25 C 10.160156 -34.71875 8.890625 -32.757812 8.109375 -30.375 C 7.335938 -27.988281 7.132812 -25.441406 7.5 -22.734375 C 7.863281 -20.003906 8.734375 -17.59375 10.109375 -15.5 C 11.484375 -13.414062 13.222656 -11.863281 15.328125 -10.84375 C 17.429688 -9.820312 19.722656 -9.476562 22.203125 -9.8125 C 24.640625 -10.132812 26.742188 -11.078125 28.515625 -12.640625 C 30.296875 -14.203125 31.582031 -16.164062 32.375 -18.53125 C 33.175781 -20.894531 33.394531 -23.441406 33.03125 -26.171875 Z M 33.03125 -26.171875 "/></g></g></g><g fill="rgb(36.079407%, 88.238525%, 90.19928%)" fill-opacity="1"><g transform="translate(418.018234, 154.341268)"><g><path d="M 38.65625 1.15625 C 38.78125 1.707031 38.8125 2.207031 38.75 2.65625 C 38.582031 3.707031 38.097656 4.515625 37.296875 5.078125 C 36.503906 5.640625 35.660156 5.851562 34.765625 5.71875 C 34.035156 5.601562 33.410156 5.273438 32.890625 4.734375 C 32.367188 4.191406 32.015625 3.515625 31.828125 2.703125 L 29.796875 -5.15625 L 11.6875 -7.96875 L 7.390625 -1.03125 C 6.984375 -0.300781 6.453125 0.226562 5.796875 0.5625 C 5.140625 0.894531 4.46875 1.007812 3.78125 0.90625 C 2.726562 0.738281 1.972656 0.328125 1.515625 -0.328125 C 1.054688 -0.984375 0.898438 -1.796875 1.046875 -2.765625 C 1.109375 -3.117188 1.226562 -3.492188 1.40625 -3.890625 L 22.1875 -37.890625 C 22.632812 -38.640625 23.21875 -39.1875 23.9375 -39.53125 C 24.65625 -39.882812 25.410156 -39.957031 26.203125 -39.75 C 26.929688 -39.632812 27.578125 -39.3125 28.140625 -38.78125 C 28.703125 -38.257812 29.066406 -37.597656 29.234375 -36.796875 Z M 15.75 -14.484375 L 27.90625 -12.59375 L 23.96875 -27.765625 Z M 15.75 -14.484375 "/></g></g></g><g fill="rgb(36.079407%, 88.238525%, 90.19928%)" fill-opacity="1"><g transform="translate(483.525934, 168.136187)"><g><path d="M 39.09375 -29.265625 C 42.582031 -27.640625 45.175781 -25.375 46.875 -22.46875 C 48.582031 -19.570312 49.40625 -16.335938 49.34375 -12.765625 C 49.289062 -9.203125 48.414062 -5.601562 46.71875 -1.96875 C 45.019531 1.675781 42.820312 4.664062 40.125 7 C 37.425781 9.34375 34.421875 10.789062 31.109375 11.34375 C 27.796875 11.90625 24.394531 11.375 20.90625 9.75 L 7.578125 3.53125 C 6.609375 3.082031 5.945312 2.378906 5.59375 1.421875 C 5.25 0.472656 5.300781 -0.484375 5.75 -1.453125 L 20.78125 -33.65625 C 21.226562 -34.625 21.925781 -35.28125 22.875 -35.625 C 23.832031 -35.976562 24.796875 -35.929688 25.765625 -35.484375 Z M 23.328125 3.0625 C 26.671875 4.625 29.753906 4.5625 32.578125 2.875 C 35.398438 1.1875 37.695312 -1.550781 39.46875 -5.34375 C 41.238281 -9.125 41.851562 -12.644531 41.3125 -15.90625 C 40.78125 -19.175781 38.859375 -21.582031 35.546875 -23.125 L 26.34375 -27.40625 L 14.125 -1.21875 Z M 23.328125 3.0625 "/></g></g></g></svg>